<svg xmlns="http://www.w3.org/2000/svg" viewBox="0 0 400 300" width="400" height="300" role="img" aria-labelledby="t d">
  <title id="t">Damla kurşun</title>
  <desc id="d">Dökme damla kurşun ağırlıklar; yuvarlak tabanlı damla formu, balıkçılık ve dalış dengelemesinde kullanılır.</desc>
  <defs>
    <linearGradient id="metal" x1="0" y1="0" x2="0" y2="1">
      <stop offset="0" stop-color="#f2f5f8"/><stop offset=".38" stop-color="#cbd5e0"/>
      <stop offset=".62" stop-color="#aab7c6"/><stop offset="1" stop-color="#7d8b9b"/>
    </linearGradient>
    <linearGradient id="metalV" x1="0" y1="0" x2="1" y2="0">
      <stop offset="0" stop-color="#8f9dac"/><stop offset=".3" stop-color="#dbe2ea"/>
      <stop offset=".6" stop-color="#b4c0cd"/><stop offset="1" stop-color="#808e9e"/>
    </linearGradient>
    <linearGradient id="lead" x1="0" y1="0" x2="0" y2="1">
      <stop offset="0" stop-color="#9aa4ae"/><stop offset=".45" stop-color="#6d7883"/>
      <stop offset="1" stop-color="#48515b"/>
    </linearGradient>
    <linearGradient id="brass" x1="0" y1="0" x2="0" y2="1">
      <stop offset="0" stop-color="#e8c98a"/><stop offset=".5" stop-color="#c9a257"/>
      <stop offset="1" stop-color="#9a7735"/>
    </linearGradient>
    <linearGradient id="sea" x1="0" y1="0" x2="0" y2="1">
      <stop offset="0" stop-color="#bfe0f5"/><stop offset="1" stop-color="#5f9fd0"/>
    </linearGradient>
  </defs>
  <rect width="400" height="300" rx="16" fill="#e9eff6"/>
  <rect x=".75" y=".75" width="398.5" height="298.5" rx="15.25" fill="none" stroke="#cfdbe8"/>
  <g stroke-linejoin="round" stroke-linecap="round">
  <g fill="url(#lead)" stroke="#123e69" stroke-width="2.5">
    <path d="M200 76c22 34 38 58 38 80a38 38 0 0 1-76 0c0-22 16-46 38-80z"/>
    <path d="M124 150c16 25 28 43 28 59a28 28 0 0 1-56 0c0-16 12-34 28-59z"/>
    <path d="M276 150c16 25 28 43 28 59a28 28 0 0 1-56 0c0-16 12-34 28-59z"/>
  </g>
  <path d="M186 140c-6 10-10 18-10 24" fill="none" stroke="#dfe5ec" stroke-width="4" opacity=".65"/>
  <path d="M116 192c-4 7-7 13-7 17" fill="none" stroke="#dfe5ec" stroke-width="3" opacity=".6"/>
  <path d="M268 192c-4 7-7 13-7 17" fill="none" stroke="#dfe5ec" stroke-width="3" opacity=".6"/></g>
  <text x="378" y="282" fill="#123e69" opacity=".42"
    font-family="system-ui,-apple-system,Segoe UI,Roboto,sans-serif" font-size="13"
    font-weight="600" letter-spacing="2.4" text-anchor="end">KUT MARİNE</text>
</svg>
