<svg xmlns="http://www.w3.org/2000/svg" viewBox="0 0 400 300" width="400" height="300" role="img" aria-labelledby="t d">
  <title id="t">Demirli tutya</title>
  <desc id="d">Demir çekirdekli blok tutya; çinko gövdenin içine gömülü demir lama sayesinde gövde eridikçe bağlantı kopmaz.</desc>
  <defs>
    <linearGradient id="metal" x1="0" y1="0" x2="0" y2="1">
      <stop offset="0" stop-color="#f2f5f8"/><stop offset=".38" stop-color="#cbd5e0"/>
      <stop offset=".62" stop-color="#aab7c6"/><stop offset="1" stop-color="#7d8b9b"/>
    </linearGradient>
    <linearGradient id="metalV" x1="0" y1="0" x2="1" y2="0">
      <stop offset="0" stop-color="#8f9dac"/><stop offset=".3" stop-color="#dbe2ea"/>
      <stop offset=".6" stop-color="#b4c0cd"/><stop offset="1" stop-color="#808e9e"/>
    </linearGradient>
    <linearGradient id="lead" x1="0" y1="0" x2="0" y2="1">
      <stop offset="0" stop-color="#9aa4ae"/><stop offset=".45" stop-color="#6d7883"/>
      <stop offset="1" stop-color="#48515b"/>
    </linearGradient>
    <linearGradient id="brass" x1="0" y1="0" x2="0" y2="1">
      <stop offset="0" stop-color="#e8c98a"/><stop offset=".5" stop-color="#c9a257"/>
      <stop offset="1" stop-color="#9a7735"/>
    </linearGradient>
    <linearGradient id="sea" x1="0" y1="0" x2="0" y2="1">
      <stop offset="0" stop-color="#bfe0f5"/><stop offset="1" stop-color="#5f9fd0"/>
    </linearGradient>
  </defs>
  <rect width="400" height="300" rx="16" fill="#e9eff6"/>
  <rect x=".75" y=".75" width="398.5" height="298.5" rx="15.25" fill="none" stroke="#cfdbe8"/>
  <g stroke-linejoin="round" stroke-linecap="round">
  <rect x="86" y="110" width="228" height="86" rx="8" fill="url(#metal)" stroke="#123e69" stroke-width="2.5"/>
  <path d="M86 132h228" stroke="#fff" stroke-width="3" opacity=".45"/>
  <path d="M56 153h288" stroke="#5d6974" stroke-width="13" stroke-linecap="square"/>
  <path d="M56 153h288" stroke="#39424d" stroke-width="9" stroke-linecap="square"/>
  <g fill="none" stroke="#123e69" stroke-width="2">
    <circle cx="68" cy="153" r="7"/><circle cx="332" cy="153" r="7"/>
  </g>
  <path d="M86 196h228" stroke="#123e69" stroke-width="2" opacity=".4" stroke-dasharray="6 5"/>
  <g stroke="#1f72bd" stroke-width="1.2" fill="none">
      <path d="M86 90L314 90"/>
      <path d="M91 86L86 90L91 94M309 86L314 90L309 94"/>
    </g>
</g>
</svg>
