<svg xmlns="http://www.w3.org/2000/svg" viewBox="0 0 400 300" width="400" height="300" role="img" aria-labelledby="t d">
  <title id="t">UFO tutya</title>
  <desc id="d">Disk biçimli UFO tutya; alçak profilli kubbe gövdesi ve merkezden tek cıvatayla karinaya bağlanır, su akışını en az bozar.</desc>
  <defs>
    <linearGradient id="metal" x1="0" y1="0" x2="0" y2="1">
      <stop offset="0" stop-color="#f2f5f8"/><stop offset=".38" stop-color="#cbd5e0"/>
      <stop offset=".62" stop-color="#aab7c6"/><stop offset="1" stop-color="#7d8b9b"/>
    </linearGradient>
    <linearGradient id="metalV" x1="0" y1="0" x2="1" y2="0">
      <stop offset="0" stop-color="#8f9dac"/><stop offset=".3" stop-color="#dbe2ea"/>
      <stop offset=".6" stop-color="#b4c0cd"/><stop offset="1" stop-color="#808e9e"/>
    </linearGradient>
    <linearGradient id="lead" x1="0" y1="0" x2="0" y2="1">
      <stop offset="0" stop-color="#9aa4ae"/><stop offset=".45" stop-color="#6d7883"/>
      <stop offset="1" stop-color="#48515b"/>
    </linearGradient>
    <linearGradient id="brass" x1="0" y1="0" x2="0" y2="1">
      <stop offset="0" stop-color="#e8c98a"/><stop offset=".5" stop-color="#c9a257"/>
      <stop offset="1" stop-color="#9a7735"/>
    </linearGradient>
    <linearGradient id="sea" x1="0" y1="0" x2="0" y2="1">
      <stop offset="0" stop-color="#bfe0f5"/><stop offset="1" stop-color="#5f9fd0"/>
    </linearGradient>
  </defs>
  <rect width="400" height="300" rx="16" fill="#e9eff6"/>
  <rect x=".75" y=".75" width="398.5" height="298.5" rx="15.25" fill="none" stroke="#cfdbe8"/>
  <g stroke-linejoin="round" stroke-linecap="round">
  <ellipse cx="200" cy="186" rx="134" ry="30" fill="#c3cfdc" opacity=".45"/>
  <path d="M66 180c0-40 60-66 134-66s134 26 134 66c0 17-60 30-134 30S66 197 66 180z"
    fill="url(#metal)" stroke="#123e69" stroke-width="2.5"/>
  <ellipse cx="200" cy="180" rx="134" ry="30" fill="none" stroke="#123e69" stroke-width="2" opacity=".5"/>
  <path d="M104 160c22-20 62-30 96-30s74 10 96 30" fill="none" stroke="#fff" stroke-width="3" opacity=".55"/>
  <circle cx="200" cy="146" r="17" fill="#5d6974" stroke="#123e69" stroke-width="2.5"/>
  <circle cx="200" cy="146" r="7" fill="#39424d"/>
  <path d="M200 146v84" stroke="#5d6974" stroke-width="9"/>
  <path d="M60 230h280" stroke="#123e69" stroke-width="5" opacity=".35"/>
  <g stroke="#1f72bd" stroke-width="1.2" fill="none">
      <path d="M66 96L334 96"/>
      <path d="M71 92L66 96L71 100M329 92L334 96L329 100"/>
    </g>
</g>
  <text x="378" y="282" fill="#123e69" opacity=".42"
    font-family="system-ui,-apple-system,Segoe UI,Roboto,sans-serif" font-size="13"
    font-weight="600" letter-spacing="2.4" text-anchor="end">KUT MARİNE</text>
</svg>
